<svg width="48" height="42" viewBox="0 0 48 42" fill="none" xmlns="http://www.w3.org/2000/svg">
<path fill-rule="evenodd" clip-rule="evenodd" d="M2.96843 24.185C2.18112 24.185 1.42605 23.8722 0.869343 23.3155C0.312634 22.7588 -0.00012207 22.0037 -0.00012207 21.2164C-0.00012207 20.4291 0.312634 19.674 0.869343 19.1173C1.42605 18.5606 2.18112 18.2479 2.96843 18.2479H37.362L24.6151 5.50686C24.3391 5.23085 24.1201 4.90319 23.9708 4.54258C23.8214 4.18196 23.7445 3.79545 23.7445 3.40512C23.7445 3.0148 23.8214 2.62829 23.9708 2.26768C24.1201 1.90706 24.3391 1.5794 24.6151 1.30339C24.8911 1.02739 25.2187 0.808449 25.5794 0.659077C25.94 0.509705 26.3265 0.432835 26.7168 0.432835C27.1071 0.432835 27.4936 0.509705 27.8543 0.659077C28.2149 0.808449 28.5425 1.02739 28.8185 1.30339L46.6298 19.1147C46.9063 19.3904 47.1256 19.718 47.2753 20.0787C47.4249 20.4393 47.502 20.8259 47.502 21.2164C47.502 21.6069 47.4249 21.9935 47.2753 22.3542C47.1256 22.7148 46.9063 23.0424 46.6298 23.3181L28.8185 41.1294C28.2611 41.6868 27.5051 42 26.7168 42C25.9285 42 25.1725 41.6868 24.6151 41.1294C24.0577 40.572 23.7445 39.816 23.7445 39.0277C23.7445 38.2394 24.0577 37.4834 24.6151 36.926L37.362 24.185H2.96843Z" fill="url(#paint0_linear)"/>
<defs>
<linearGradient id="paint0_linear" x1="82.0875" y1="42" x2="16.6019" y2="42" gradientUnits="userSpaceOnUse">
<stop stop-color="#0B06DC"/>
<stop offset="1" stop-color="#6F12CC"/>
</linearGradient>
</defs>
</svg>
